<svg width="16" height="17" viewBox="0 0 16 17" fill="none" xmlns="http://www.w3.org/2000/svg">
<path d="M8 1.5C4.13438 1.5 1 4.63438 1 8.5C1 12.3656 4.13438 15.5 8 15.5C11.8656 15.5 15 12.3656 15 8.5C15 4.63438 11.8656 1.5 8 1.5ZM11.0234 6.21406L7.73281 10.7766C7.68682 10.8408 7.62619 10.8931 7.55595 10.9291C7.48571 10.9652 7.40787 10.9841 7.32891 10.9841C7.24994 10.9841 7.17211 10.9652 7.10186 10.9291C7.03162 10.8931 6.97099 10.8408 6.925 10.7766L4.97656 8.07656C4.91719 7.99375 4.97656 7.87813 5.07812 7.87813H5.81094C5.97031 7.87813 6.12187 7.95469 6.21562 8.08594L7.32812 9.62969L9.78438 6.22344C9.87813 6.09375 10.0281 6.01562 10.1891 6.01562H10.9219C11.0234 6.01562 11.0828 6.13125 11.0234 6.21406Z" fill="#52C41A"/>
</svg>
