<svg width="42" height="43" viewBox="0 0 42 43" fill="none" xmlns="http://www.w3.org/2000/svg">
<path d="M38.9375 18.875H23.5625V3.125C23.5625 1.68125 22.4094 0.5 21 0.5C19.5906 0.5 18.4375 1.68125 18.4375 3.125V18.875H3.0625C1.65312 18.875 0.5 20.0562 0.5 21.5C0.5 22.9438 1.65312 24.125 3.0625 24.125H18.4375V39.875C18.4375 41.3187 19.5906 42.5 21 42.5C22.4094 42.5 23.5625 41.3187 23.5625 39.875V24.125H38.9375C40.3469 24.125 41.5 22.9438 41.5 21.5C41.5 20.0562 40.3469 18.875 38.9375 18.875Z" fill="#5C5C5C"/>
</svg>
